<svg width="54" height="55" viewBox="0 0 54 55" fill="none" xmlns="http://www.w3.org/2000/svg">
<rect x="0.5" y="0.5" width="53" height="54" rx="3.5" stroke="white"/>
<path d="M40.3821 27.3799C40.3845 27.3799 40.3864 27.3799 40.3888 27.3799C40.5593 27.3799 40.7219 27.3084 40.8374 27.1831C40.9548 27.056 41.0129 26.8854 40.9976 26.7131C40.3839 19.963 35.04 14.6169 28.2897 14.002C28.1185 13.9885 27.9462 14.0441 27.819 14.1621C27.6919 14.2795 27.621 14.4451 27.6228 14.6181C27.7292 23.5889 28.9125 27.2546 40.3821 27.3799ZM40.3821 28.6196C28.9125 28.7449 27.7298 32.4106 27.6234 41.3814C27.6216 41.5544 27.6925 41.72 27.8196 41.8374C27.9333 41.9419 28.0819 42 28.2347 42C28.253 42 28.2719 41.9994 28.2903 41.9976C35.0406 41.3826 40.3845 36.0372 40.9976 29.2865C41.0129 29.1141 40.9554 28.9435 40.8374 28.8164C40.7195 28.6893 40.5551 28.6263 40.3821 28.6196ZM25.6694 14.005C18.9404 14.6377 13.6136 19.9825 13.003 26.7143C12.9877 26.8867 13.0452 27.0572 13.1632 27.1843C13.2787 27.3097 13.4419 27.3806 13.6118 27.3806C13.6142 27.3806 13.6167 27.3806 13.6191 27.3806C25.0508 27.2491 26.2311 23.5853 26.3386 14.6206C26.3405 14.4476 26.269 14.2813 26.1418 14.164C26.0135 14.0466 25.8417 13.9891 25.6694 14.005ZM13.6185 28.619C13.4284 28.5976 13.2793 28.688 13.1625 28.8152C13.0452 28.9423 12.9871 29.1129 13.0024 29.2852C13.613 36.017 18.9404 41.3618 25.6694 41.9945C25.6883 41.9963 25.7079 41.9969 25.7268 41.9969C25.8796 41.9969 26.0275 41.9395 26.1412 41.835C26.2684 41.7176 26.3399 41.5513 26.338 41.3784C26.2305 32.4143 25.0508 28.7504 13.6185 28.619Z" fill="#E4E4E4"/>
</svg>
