<svg width="44" height="44" viewBox="0 0 44 44" fill="none" xmlns="http://www.w3.org/2000/svg">
<circle cx="22.1338" cy="21.7417" r="21.2417" stroke="white"/>
<g clip-path="url(#clip0_2002_2)">
<path d="M32.577 30.7352C32.577 31.8291 32.2688 32.7175 31.6791 33.4534C31.0948 34.1827 30.4703 34.4734 29.7686 34.4734H14.4993C13.7976 34.4734 13.1731 34.1827 12.5888 33.4534C11.9991 32.7175 11.6909 31.8291 11.6909 30.7352C11.6909 29.7551 11.7399 28.8362 11.8366 27.9774C11.9309 27.1401 12.106 26.2931 12.3638 25.4357C12.6165 24.5952 12.9291 23.9054 13.29 23.3514L12.4521 22.8056L13.29 23.3514C13.6252 22.8367 14.0702 22.4121 14.6407 22.0756C15.0752 21.8194 15.5756 21.6601 16.159 21.6125C17.8422 23.1211 19.8483 23.886 22.1339 23.886C24.4196 23.886 26.4257 23.1211 28.1089 21.6125C28.6923 21.6601 29.1927 21.8194 29.6271 22.0756C30.1976 22.4121 30.6427 22.8367 30.9779 23.3514L31.8158 22.8056L30.9779 23.3514C31.3388 23.9054 31.6514 24.5952 31.9041 25.4357C32.1619 26.2931 32.337 27.1401 32.4313 27.9774C32.5279 28.8362 32.577 29.7551 32.577 30.7352ZM27.9998 14.8759C27.9998 16.5058 27.4348 17.8696 26.2812 19.0232C25.1276 20.1767 23.7638 20.7417 22.1339 20.7417C20.5041 20.7417 19.1403 20.1767 17.9867 19.0232C16.8331 17.8696 16.2681 16.5058 16.2681 14.8759C16.2681 13.2461 16.8331 11.8823 17.9867 10.7287C19.1403 9.5751 20.5041 9.0101 22.1339 9.0101C23.7638 9.0101 25.1276 9.5751 26.2812 10.7287C27.4348 11.8823 27.9998 13.2461 27.9998 14.8759Z" stroke="white" stroke-width="2"/>
</g>
<defs>
<clipPath id="clip0_2002_2">
<rect width="22.886" height="27.4633" fill="white" transform="translate(10.6909 8.0101)"/>
</clipPath>
</defs>
</svg>
