<svg width="44" height="44" viewBox="0 0 44 44" fill="none" xmlns="http://www.w3.org/2000/svg">
<circle cx="21.7417" cy="21.7417" r="21.2417" stroke="black"/>
<g clip-path="url(#clip0_182_2)">
<path d="M32.1849 30.7351C32.1849 31.829 31.8767 32.7174 31.287 33.4533C30.7027 34.1826 30.0782 34.4733 29.3765 34.4733H14.1072C13.4055 34.4733 12.781 34.1826 12.1967 33.4533C11.607 32.7174 11.2988 31.829 11.2988 30.7351C11.2988 29.755 11.3478 28.8361 11.4445 27.9773C11.5388 27.14 11.7139 26.293 11.9717 25.4356C12.2244 24.5951 12.537 23.9053 12.8979 23.3513L12.06 22.8055L12.8979 23.3513C13.2331 22.8366 13.6781 22.412 14.2487 22.0756C14.6831 21.8193 15.1835 21.66 15.7669 21.6124C17.4501 23.121 19.4562 23.8859 21.7419 23.8859C24.0275 23.8859 26.0336 23.121 27.7168 21.6124C28.3002 21.66 28.8006 21.8193 29.235 22.0756C29.8056 22.412 30.2506 22.8366 30.5858 23.3513L31.4237 22.8055L30.5858 23.3513C30.9467 23.9053 31.2593 24.5951 31.512 25.4356C31.7698 26.293 31.9449 27.14 32.0392 27.9773C32.1359 28.8361 32.1849 29.755 32.1849 30.7351ZM27.6077 14.8758C27.6077 16.5057 27.0427 17.8695 25.8891 19.0231C24.7355 20.1766 23.3717 20.7416 21.7419 20.7416C20.112 20.7416 18.7482 20.1766 17.5946 19.0231C16.441 17.8695 15.876 16.5057 15.876 14.8758C15.876 13.246 16.441 11.8822 17.5946 10.7286C18.7482 9.57501 20.112 9.01001 21.7419 9.01001C23.3717 9.01001 24.7355 9.57501 25.8891 10.7286C27.0427 11.8822 27.6077 13.246 27.6077 14.8758Z" stroke="black" stroke-width="2"/>
</g>
<defs>
<clipPath id="clip0_182_2">
<rect width="22.886" height="27.4633" fill="white" transform="translate(10.2988 8.01001)"/>
</clipPath>
</defs>
</svg>
