<svg width="100" height="100" viewBox="0 0 100 100" fill="none" xmlns="http://www.w3.org/2000/svg">
<g clip-path="url(#clip0_22_5)">
<path d="M68.1935 40.4398L99.5865 49.7048C100.138 49.8685 100.138 50.1317 99.5865 50.2947L62.5269 61.2332C61.9755 61.3956 61.3959 61.9746 61.2328 62.5266L50.2944 99.5868C50.2135 99.8622 50.1063 100 49.9998 100C49.8932 100 49.7867 99.8622 49.7051 99.5868L41.2932 71.0855L59.4715 59.6689L60.2662 59.1701L68.1935 40.4398ZM15.0796 57.0943L18.4534 58.0898L17.7563 81.7114L22.3362 80.1529L22.9473 59.4166L26.3191 60.4122L25.7722 78.984L39.75 74.2276L40.7129 77.4916L25.6644 82.612L25.5752 85.6744L41.6776 80.7576L42.6398 84.0196L22.0364 90.3108L22.2284 83.7822L14.2131 86.5095L15.0796 57.0943ZM84.9205 57.0943L85.7865 86.5095L77.689 83.7539L77.8822 90.3108L57.3533 84.0428L58.3161 80.782L74.3435 85.6744L74.253 82.5837L59.286 77.4916L60.2501 74.2276L74.1464 78.9551L73.5995 60.4359L76.9726 59.4404L77.5825 80.1253L82.2439 81.7114L81.548 58.0898L84.9205 57.0943ZM71.3542 25.3341L57.8886 57.1469L28.6338 75.5184L42.1 43.7057L71.3542 25.3341ZM49.9998 0C50.1063 0 50.2135 0.137365 50.2944 0.413378L58.9175 29.6278L39.7224 41.6825L32.116 59.6515L16.737 55.1127L15.1522 54.6448L0.413057 50.2947C-0.137686 50.1317 -0.137686 49.8685 0.413057 49.7048L37.4739 38.7663C38.0246 38.604 38.6043 38.0256 38.7667 37.4736L49.7051 0.413378C49.7867 0.137365 49.8932 0 49.9998 0ZM54.1008 45.7482C51.9325 43.5792 48.4169 43.5792 46.2479 45.7482C44.079 47.9159 44.079 51.4321 46.2479 53.6011C48.4169 55.7694 51.9325 55.7694 54.1008 53.6011C56.2697 51.4321 56.2697 47.9159 54.1008 45.7482ZM22.0364 9.03846L42.8164 15.3829L41.8535 18.6444L25.5752 13.6742L25.7145 18.4319L40.5774 22.9713L39.614 26.2328L25.8204 22.0194L26.3377 39.5822L22.9659 40.5784L22.3882 20.9712L17.7537 19.5558L18.413 41.9219L15.0411 42.9175L14.215 14.9195L22.2823 17.383L22.0364 9.03846ZM77.8822 9.03846L77.6351 17.4087L85.7845 14.9195L84.9591 42.9175L81.5866 41.9219L82.2464 19.5558L77.5298 20.9962L76.9534 40.5547L73.5815 39.5584L74.0976 22.0445L60.3855 26.2328L59.424 22.9713L74.2029 18.4569L74.3435 13.6742L58.1396 18.6213L57.1767 15.3604L77.8822 9.03846Z" fill="white"/>
</g>
<defs>
<clipPath id="clip0_22_5">
<rect width="100" height="100" fill="white"/>
</clipPath>
</defs>
</svg>
