<svg width="22" height="22" viewBox="0 0 22 22" fill="none" xmlns="http://www.w3.org/2000/svg">
<g clip-path="url(#clip0_22_49)">
<path d="M16.1453 14.223C17.4767 12.4062 18.073 10.1537 17.8149 7.91607C17.5569 5.67847 16.4635 3.62083 14.7534 2.15479C13.0434 0.688752 10.8429 -0.0775595 8.59216 0.00916607C6.34141 0.0958917 4.20639 1.02926 2.61426 2.62253C1.02212 4.21581 0.0902833 6.35149 0.00516828 8.60231C-0.0799467 10.8531 0.687939 13.0531 2.1552 14.762C3.62246 16.471 5.68089 17.563 7.91866 17.8194C10.1564 18.0759 12.4085 17.4779 14.2244 16.1452H14.223C14.2633 16.2002 14.3083 16.2529 14.3578 16.3034L19.6515 21.5971C19.9093 21.8551 20.2591 22.0001 20.6238 22.0003C20.9886 22.0004 21.3384 21.8556 21.5965 21.5978C21.8545 21.34 21.9995 20.9902 21.9996 20.6255C21.9997 20.2607 21.855 19.9109 21.5971 19.6529L16.3034 14.3591C16.2543 14.3093 16.2014 14.2647 16.1453 14.223ZM16.5 8.93749C16.5 9.93061 16.3044 10.914 15.9244 11.8315C15.5443 12.7491 14.9873 13.5827 14.285 14.285C13.5828 14.9872 12.7491 15.5443 11.8316 15.9243C10.914 16.3044 9.93064 16.5 8.93751 16.5C7.94439 16.5 6.961 16.3044 6.04347 15.9243C5.12595 15.5443 4.29226 14.9872 3.59002 14.285C2.88778 13.5827 2.33073 12.7491 1.95067 11.8315C1.57062 10.914 1.37501 9.93061 1.37501 8.93749C1.37501 6.93179 2.17178 5.00823 3.59002 3.58999C5.00826 2.17175 6.93181 1.37499 8.93751 1.37499C10.9432 1.37499 12.8668 2.17175 14.285 3.58999C15.7033 5.00823 16.5 6.93179 16.5 8.93749Z" fill="white"/>
</g>
<defs>
<clipPath id="clip0_22_49">
<rect width="22" height="22" fill="white"/>
</clipPath>
</defs>
</svg>
