<svg width="54" height="55" viewBox="0 0 54 55" fill="none" xmlns="http://www.w3.org/2000/svg">
<rect x="0.5" y="0.5" width="53" height="54" rx="3.5" stroke="white"/>
<path fill-rule="evenodd" clip-rule="evenodd" d="M35.8365 38.0778V38.0749L35.862 38.014L40.1106 16.594V16.526C40.1106 15.9919 39.9122 15.5258 39.4844 15.2468C39.109 15.0017 38.6769 14.9847 38.3737 15.0073C38.0915 15.0329 37.8131 15.0899 37.5436 15.1773C37.4286 15.2144 37.3152 15.256 37.2036 15.302L37.1851 15.3091L13.4985 24.601L13.4914 24.6038C13.4194 24.6284 13.3489 24.6573 13.2803 24.6903C13.1118 24.7659 12.9502 24.856 12.7972 24.9594C12.4926 25.1691 11.9132 25.6621 12.011 26.4441C12.0917 27.0929 12.538 27.5038 12.8397 27.7177C13.0178 27.8425 13.2093 27.947 13.4106 28.0293L13.456 28.0492L13.4701 28.0534L13.4801 28.0577L17.6252 29.4531C17.6111 29.7123 17.6366 29.9773 17.706 30.2393L19.7814 38.1146C19.8948 38.5439 20.1398 38.9268 20.482 39.2097C20.8242 39.4926 21.2464 39.6612 21.6893 39.6919C22.1323 39.7225 22.5737 39.6136 22.9516 39.3805C23.3294 39.1474 23.6248 38.8018 23.7962 38.3923L27.0376 34.9271L32.6036 39.1941L32.683 39.2281C33.1887 39.4491 33.6605 39.5185 34.0926 39.4604C34.5246 39.4009 34.8675 39.2196 35.1253 39.0142C35.4235 38.7724 35.6612 38.4644 35.8195 38.1146L35.8308 38.0905L35.8351 38.082L35.8365 38.0778ZM19.7601 29.6982C19.7372 29.6108 19.7426 29.5184 19.7757 29.4343C19.8089 29.3502 19.8679 29.2789 19.9443 29.2307L33.9991 20.3057C33.9991 20.3057 34.8264 19.8028 34.7966 20.3057C34.7966 20.3057 34.944 20.3935 34.5006 20.8058C34.0812 21.1982 24.4833 30.4646 23.5115 31.4024C23.4574 31.4549 23.4196 31.5218 23.4024 31.5951L21.8356 37.5734L19.7601 29.6982Z" fill="#E4E4E4"/>
</svg>
