<svg width="54" height="55" viewBox="0 0 54 55" fill="none" xmlns="http://www.w3.org/2000/svg">
<rect x="0.5" y="0.5" width="53" height="54" rx="3.5" stroke="white"/>
<g clip-path="url(#clip0_22_111)">
<path d="M20.7379 42C32.4365 42 38.8361 31.994 38.8361 23.332C38.8386 23.0507 38.8348 22.7693 38.8244 22.488C40.07 21.5565 41.1452 20.4039 42 19.084C40.8358 19.6125 39.6026 19.9616 38.3401 20.12C39.6703 19.2994 40.6666 18.008 41.1436 16.486C39.8945 17.2514 38.5264 17.788 37.1001 18.072C36.1414 17.018 34.8727 16.3198 33.4907 16.0855C32.1086 15.8512 30.6903 16.0938 29.4553 16.7759C28.2204 17.4579 27.2378 18.5413 26.6597 19.8581C26.0817 21.175 25.9404 22.6519 26.2578 24.06C23.7287 23.9297 21.2545 23.2518 18.9957 22.0703C16.737 20.8888 14.7442 19.2302 13.1467 17.202C12.3361 18.6483 12.0888 20.3588 12.4551 21.9864C12.8214 23.614 13.7738 25.0367 15.1191 25.966C14.1105 25.9324 13.1239 25.6527 12.24 25.15V25.24C12.2425 26.7548 12.7512 28.2223 13.6802 29.3948C14.6092 30.5673 15.9017 31.3731 17.3395 31.676C16.7936 31.8313 16.2298 31.9087 15.6636 31.906C15.2643 31.9103 14.8656 31.8721 14.4739 31.792C14.8796 33.0966 15.6709 34.2373 16.7366 35.0541C17.8024 35.8708 19.0891 36.3226 20.4163 36.346C18.1612 38.1719 15.3773 39.1629 12.5112 39.16C12.0061 39.1639 11.5013 39.1339 11 39.07C13.909 40.9849 17.2877 42.0015 20.7379 42Z" fill="#E4E4E4"/>
</g>
<defs>
<clipPath id="clip0_22_111">
<rect width="31" height="32" fill="white" transform="translate(11 12)"/>
</clipPath>
</defs>
</svg>
